<svg width="30" height="30" viewBox="0 0 30 30" fill='none' xmlns="http://www.w3.org/2000/svg">
    <path d="M1.25 25V23.75C1.25 21.4294 2.17187 19.2038 3.81282 17.5628C5.45376 15.9219 7.67936 15 10 15C12.3206 15 14.5462 15.9219 16.1872 17.5628C17.8281 19.2038 18.75 21.4294 18.75 23.75V25"  stroke="white" stroke-width="1.875" stroke-linecap="round"/>
    <path d="M16.25 17.5C16.25 15.8424 16.9085 14.2527 18.0806 13.0806C19.2527 11.9085 20.8424 11.25 22.5 11.25C23.3208 11.25 24.1335 11.4117 24.8918 11.7258C25.6501 12.0398 26.3391 12.5002 26.9194 13.0806C27.4998 13.6609 27.9602 14.3499 28.2742 15.1082C28.5883 15.8665 28.75 16.6792 28.75 17.5V18.125" stroke="white" stroke-width="1.875" stroke-linecap="round"/>
    <path d="M10 15C11.3261 15 12.5979 14.4732 13.5355 13.5355C14.4732 12.5979 15 11.3261 15 10C15 8.67392 14.4732 7.40215 13.5355 6.46447C12.5979 5.52678 11.3261 5 10 5C8.67392 5 7.40215 5.52678 6.46447 6.46447C5.52678 7.40215 5 8.67392 5 10C5 11.3261 5.52678 12.5979 6.46447 13.5355C7.40215 14.4732 8.67392 15 10 15ZM22.5 11.25C23.4946 11.25 24.4484 10.8549 25.1517 10.1517C25.8549 9.44839 26.25 8.49456 26.25 7.5C26.25 6.50544 25.8549 5.55161 25.1517 4.84835C24.4484 4.14509 23.4946 3.75 22.5 3.75C21.5054 3.75 20.5516 4.14509 19.8483 4.84835C19.1451 5.55161 18.75 6.50544 18.75 7.5C18.75 8.49456 19.1451 9.44839 19.8483 10.1517C20.5516 10.8549 21.5054 11.25 22.5 11.25Z"   stroke="white" stroke-width="1.875" stroke-linecap="round" stroke-linejoin="round"/>
</svg>
