<svg width="31" height="31" viewBox="0 0 31 31" fill="none" stroke="white" xmlns="http://www.w3.org/2000/svg">
<path d="M25.8334 24.5417V13.5625C25.8334 13.362 25.7867 13.1642 25.697 12.9849C25.6073 12.8055 25.4771 12.6495 25.3167 12.5292L16.275 5.74793C16.0514 5.58024 15.7795 5.48959 15.5 5.48959C15.2205 5.48959 14.9486 5.58024 14.725 5.74793L5.68335 12.5292C5.52293 12.6495 5.39273 12.8055 5.30305 12.9849C5.21337 13.1642 5.16669 13.362 5.16669 13.5625V24.5417C5.16669 24.8842 5.30277 25.2128 5.54501 25.455C5.78724 25.6973 6.11578 25.8333 6.45835 25.8333H11.625C11.9676 25.8333 12.2961 25.6973 12.5384 25.455C12.7806 25.2128 12.9167 24.8842 12.9167 24.5417V20.6667C12.9167 20.3241 13.0528 19.9956 13.295 19.7533C13.5372 19.5111 13.8658 19.375 14.2084 19.375H16.7917C17.1343 19.375 17.4628 19.5111 17.705 19.7533C17.9473 19.9956 18.0834 20.3241 18.0834 20.6667V24.5417C18.0834 24.8842 18.2194 25.2128 18.4617 25.455C18.7039 25.6973 19.0324 25.8333 19.375 25.8333H24.5417C24.8843 25.8333 25.2128 25.6973 25.455 25.455C25.6973 25.2128 25.8334 24.8842 25.8334 24.5417Z"  stroke="white" stroke-width="1.9375" stroke-linecap="round" stroke-linejoin="round"/>
</svg>
