<svg width="30" height="30" viewBox="0 0 30 30" fill="none" xmlns="http://www.w3.org/2000/svg">
<path d="M3.75 18.75C3.75 15.2387 3.75 13.4837 4.5925 12.2225C4.95739 11.6763 5.42632 11.2074 5.9725 10.8425C7.23375 10 8.9875 10 12.5 10H17.5C21.0112 10 22.7662 10 24.0275 10.8425C24.5737 11.2074 25.0426 11.6763 25.4075 12.2225C26.25 13.4837 26.25 15.2375 26.25 18.75C26.25 22.2625 26.25 24.0163 25.4075 25.2775C25.0426 25.8237 24.5737 26.2926 24.0275 26.6575C22.7662 27.5 21.0125 27.5 17.5 27.5H12.5C8.98875 27.5 7.23375 27.5 5.9725 26.6575C5.42632 26.2926 4.95739 25.8237 4.5925 25.2775C3.75 24.0163 3.75 22.2625 3.75 18.75Z" stroke="currentColor" stroke-width="1.875" stroke-linecap="round" stroke-linejoin="round"/>
<path d="M15.625 20.625C15.625 20.8712 15.5765 21.115 15.4823 21.3425C15.388 21.57 15.2499 21.7767 15.0758 21.9508C14.9017 22.1249 14.695 22.263 14.4675 22.3573C14.24 22.4515 13.9962 22.5 13.75 22.5C13.5038 22.5 13.26 22.4515 13.0325 22.3573C12.805 22.263 12.5983 22.1249 12.4242 21.9508C12.2501 21.7767 12.112 21.57 12.0177 21.3425C11.9235 21.115 11.875 20.8712 11.875 20.625C11.875 20.1277 12.0725 19.6508 12.4242 19.2992C12.7758 18.9475 13.2527 18.75 13.75 18.75C14.2473 18.75 14.7242 18.9475 15.0758 19.2992C15.4275 19.6508 15.625 20.1277 15.625 20.625ZM15.625 20.625V14.375C15.625 14.375 16.125 16.5413 18.125 16.875M23.75 10C23.7275 8.45 23.6125 7.57125 23.0225 6.9825C22.29 6.25 21.11 6.25 18.7525 6.25H11.2475C8.88875 6.25 7.71 6.25 6.9775 6.9825C6.3875 7.57125 6.2725 8.45 6.25 10M21.25 6.25C21.25 5.085 21.25 4.5025 21.06 4.04375C20.9344 3.74023 20.7501 3.46444 20.5178 3.23215C20.2856 2.99987 20.0098 2.81564 19.7062 2.69C19.2475 2.5 18.665 2.5 17.5 2.5H12.5C11.335 2.5 10.7525 2.5 10.2937 2.69C9.99023 2.81564 9.71444 2.99987 9.48215 3.23215C9.24987 3.46444 9.06564 3.74023 8.94 4.04375C8.75 4.5025 8.75 5.085 8.75 6.25" stroke="currentColor" stroke-width="1.875" stroke-linecap="round" stroke-linejoin="round"/>
</svg>
